<?xml version="1.0" encoding="UTF-8"?>
<svg xmlns="http://www.w3.org/2000/svg" xmlns:xlink="http://www.w3.org/1999/xlink" width="2409.56pt" height="730.99pt" viewBox="0 0 2409.56 730.99" version="1.1">
<defs>
<clipPath id="clip1">
  <path d="M 2209 530 L 2409.558594 530 L 2409.558594 730.988281 L 2209 730.988281 Z M 2209 530 "/>
</clipPath>
</defs>
<g id="surface1">
<path style=" stroke:none;fill-rule:nonzero;fill:rgb(25.097656%,25.488281%,27.050781%);fill-opacity:1;" d="M 92.050781 717.453125 L 251.785156 717.453125 L 251.785156 354.664063 L 406.105469 354.664063 L 406.105469 717.453125 L 565.839844 717.453125 L 565.839844 219.296875 L 251.785156 219.296875 L 251.785156 189.515625 C 251.785156 157.027344 276.152344 135.367188 311.347656 135.367188 L 406.105469 135.367188 L 406.105469 0 L 286.980469 0 C 170.5625 0 92.050781 73.097656 92.050781 178.6875 L 92.050781 219.296875 L 0 219.296875 L 0 354.664063 L 92.050781 354.664063 Z M 752.648438 717.453125 L 893.433594 717.453125 L 1072.121094 222.003906 L 909.675781 222.003906 L 823.039063 511.691406 L 736.40625 219.296875 L 573.964844 219.296875 Z M 1372.640625 411.519531 C 1369.929688 368.203125 1337.441406 330.300781 1283.289063 330.300781 C 1231.851563 330.300781 1202.070313 351.957031 1191.238281 411.519531 Z M 1526.960938 506.277344 L 1191.238281 506.277344 C 1199.359375 563.132813 1234.558594 592.914063 1291.421875 592.914063 C 1334.730469 592.914063 1364.511719 573.960938 1375.339844 544.179688 L 1518.828125 584.792969 C 1483.640625 671.425781 1397 722.867188 1291.421875 722.867188 C 1115.441406 722.867188 1034.21875 584.792969 1034.21875 465.667969 C 1034.21875 349.25 1104.609375 211.175781 1280.589844 211.175781 C 1467.390625 211.175781 1529.660156 351.957031 1529.660156 457.546875 C 1529.660156 481.910156 1529.660156 495.449219 1526.960938 506.277344 M 2209.210938 354.664063 L 2125.289063 354.664063 C 2071.140625 354.664063 2041.359375 395.277344 2041.359375 465.667969 L 2041.359375 717.453125 L 1878.910156 717.453125 L 1878.910156 354.664063 L 1811.230469 354.664063 C 1757.078125 354.664063 1727.300781 395.277344 1727.300781 465.667969 L 1727.300781 717.453125 L 1564.859375 717.453125 L 1564.859375 219.296875 L 1727.300781 219.296875 L 1727.300781 295.101563 C 1754.378906 235.539063 1789.570313 219.296875 1843.71875 219.296875 L 2041.359375 219.296875 L 2041.359375 295.101563 C 2068.429688 235.539063 2103.628906 219.296875 2157.769531 219.296875 L 2211.921875 219.296875 "/>
<g clip-path="url(#clip1)" clip-rule="nonzero">
<path style=" stroke:none;fill-rule:nonzero;fill:rgb(11.376953%,74.804688%,45.092773%);fill-opacity:1;" d="M 2309.390625 730.988281 C 2363.53125 730.988281 2409.558594 684.964844 2409.558594 630.816406 C 2409.558594 576.671875 2363.53125 530.644531 2309.390625 530.644531 C 2255.238281 530.644531 2209.210938 576.671875 2209.210938 630.816406 C 2209.210938 684.964844 2255.238281 730.988281 2309.390625 730.988281 "/>
</g>
</g>
</svg>
